<svg width="101" height="108" viewBox="0 0 101 108" fill="none" xmlns="http://www.w3.org/2000/svg">
<g clip-path="url(#clip0_415_468)">
<path d="M101.89 96.6949L91.7887 106.796L86.738 101.746L81.6872 106.796L76.6364 101.746L71.5857 106.796L66.5349 101.746L61.4841 106.796L56.4334 101.746L51.3826 106.796L46.3319 101.746L41.2811 106.796L36.2303 101.746L31.1796 106.796L21.0781 96.6949L31.1796 86.5933L36.2303 91.6441L41.2811 86.5933L46.3319 91.6441L51.3826 86.5933L56.4334 91.6441L61.4842 86.5933L66.5349 91.6441L71.5857 86.5933L0.875 15.8827L10.9765 5.78113L81.6872 76.4918L86.738 71.441L81.6872 66.3903L86.738 61.3395L81.6872 56.2888L86.738 51.238L81.6872 46.1872L86.738 41.1365L81.6872 36.0857L91.7887 25.9842L101.89 36.0857L96.8395 41.1365L101.89 46.1872L96.8395 51.238L101.89 56.2888L96.8395 61.3395L101.89 66.3903L96.8395 71.441L101.89 76.4918L96.8395 81.5426L101.89 86.5933L96.8395 91.6441L101.89 96.6949Z" fill="#1C757D"/>
</g>
<defs>
<clipPath id="clip0_415_468">
<rect width="100" height="107.143" fill="white" transform="translate(0.335938 0.673706)"/>
</clipPath>
</defs>
</svg>
