<svg width="1921" height="730" viewBox="0 0 1921 730" fill="none" xmlns="http://www.w3.org/2000/svg">
<path d="M1920.19 729.61V0H1906.34V59.0042H1880.48V0H1838.72V38.66H1771.12V97.6643H1711.46V0H1663.73V56.9675H1598.11V0H1552.38V52.9017H1496.7V0H1431.07V24.4183H1339.61V0H1283.92V71.21H1230.24V0H1188.48V38.66H1110.92V85.4524H1037.34V20.3457H987.631V54.9392H943.883V14.2425H882.238V63.0716H790.767V0H717.194V30.5209H655.549V0H599.874V28.4842H516.355V79.3492H462.661V0H414.938V42.7258H347.329V0H313.521V26.4482H210.116V91.555H162.393V0H90.8008V36.6233H0.192383V729.61H1920.19Z" fill="#4EC8EC"/>
</svg>
