<svg width="1920" height="731" viewBox="0 0 1920 731" fill="none" xmlns="http://www.w3.org/2000/svg">
<path d="M-1.01993e-05 730.293V0.890625H13.8528V59.8775H39.7084V0.890625H81.4679V39.5392H149.077V98.5254H208.735V0.890625H256.458V57.8482H322.079V0.890625H367.814V53.776H423.496V0.890625H489.117V25.301H580.587V0.890625H636.269V72.0865H689.956V0.890625H731.716V39.5392H809.271V86.324H882.85V21.2364H932.562V55.8129H976.309V15.1289H1037.95V63.9497H1129.43V0.890625H1203V31.4017H1264.64V0.890625H1320.32V29.3664H1403.84V80.2164H1457.53V0.890625H1505.25V43.6039H1572.86V0.890625H1606.67V27.3379H1710.08V92.4247H1757.8V0.890625H1829.39V37.5024H1920V730.293H-1.01993e-05Z" fill="#77D0EE"/>
</svg>
