<svg width="1920" height="324" viewBox="0 0 1920 324" fill="none" xmlns="http://www.w3.org/2000/svg">
<path d="M378.519 204.97H787.009V197.137H777.515V140.503H768.013V148.594H758.511V156.684H701.516V148.594H692.021V140.503H682.519V132.412H673.018V140.503H663.517V156.684H654.022V164.775H644.52V172.864H635.018V180.956H616.022V189.046H540.017V180.956H521.021V172.864H511.519V164.775H502.018V156.684H483.022V164.775H473.519V172.864H416.518V164.775H407.017V156.684H397.521V140.503H388.021V108.141H378.519V132.412H369.017V180.956H378.519V204.97Z" fill="#B2E2F1"/>
<path d="M397.521 156.686H407.016V164.776H416.518V172.866H473.519V164.776H483.021V156.686H502.018V164.776H511.519V172.866H521.02V180.958H540.017V189.048H616.022V180.958H635.018V172.866H644.52V164.776H654.022V156.686H663.516V140.505H673.018V132.414H682.519V140.505H692.02V148.595H701.516V156.686H758.51V148.595H768.012V140.505H777.515V197.139H787.009V204.972H844.011V156.686H834.509V140.505H825.015V132.414H815.513V124.323H806.011V116.233H777.515V91.9612H768.012V67.6895H758.51V59.5989H749.009V51.5083H739.515V43.4177H730.02V35.328H654.022V43.4177H644.52V27.2366H635.018V19.146H616.022V11.0554H606.522V2.96484H549.518V11.0554H530.515V19.146H521.02V27.2366H511.519V35.328H502.018V43.4177H492.516V67.6895H426.019V75.7801H407.016V83.8706H397.521V91.9612H388.021V140.505H397.521V156.686Z" fill="white"/>
<path d="M673.192 279.68H684.105V298.267H695.017V307.559H705.922V316.852H727.748V323.135H1164.21V316.852H1175.13V307.559H1164.21V298.267H1153.3V288.973H1142.39V270.387H1131.48V205.336H1120.56V214.629H1109.65V223.921H1044.18V214.629H1033.27V205.336H1022.36V196.043H1011.45V205.336H1000.53V223.921H989.628V233.215H978.715V242.508H967.802V251.801H945.977V261.094H858.684V251.801H836.859V242.508H825.946V233.215H815.034V223.921H793.215V233.215H782.303V242.508H716.835V233.215H705.922V223.921H695.017V205.336H684.105V168.164H673.192V196.043H662.279V251.801H673.192V279.68Z" fill="#B2E2F1"/>
<path d="M1196.95 223.922V214.63V205.337H1186.04V196.044H1175.13V186.75H1164.22V177.457H1153.3H1142.39H1131.48V168.165V158.872V149.579H1120.57V140.285V130.992V121.699H1109.65V112.407H1098.74V103.114H1087.83V93.8204H1076.92V84.5273H1066.01H1055.1H1044.18H1033.27H1022.36H1011.45H1000.53H989.628V93.8204H978.716V84.5273V75.2342H967.803V65.941H956.891H945.978V56.6478H935.065V47.3555H924.153H913.241H902.335H891.423H880.51H869.597V56.6478H858.685H847.772V65.941H836.859V75.2342H825.947V84.5273H815.035V93.8204H804.122V103.114V112.407V121.699H793.216H782.304H771.392H760.479H749.566H738.653H727.748V130.992H716.842H705.93V140.285H695.018V149.579H684.105V158.872V168.165V177.457V186.75V196.044V205.337H695.018V214.63V223.922H705.93V233.216H716.842V242.509H727.748H738.653H749.566H760.479H771.392H782.304V233.216H793.216V223.922H804.122H815.035V233.216H825.947V242.509H836.859V251.802H847.772H858.685V261.095H869.597H880.51H891.423H902.335H913.241H924.153H935.065H945.978V251.802H956.891H967.803V242.509H978.716V233.216H989.628V223.922H1000.53V214.63V205.337H1011.45V196.044H1022.36V205.337H1033.27V214.63H1044.18V223.922H1055.1H1066.01H1076.92H1087.83H1098.74H1109.65V214.63H1120.57V205.337H1131.48V214.63V223.922V233.216V242.509V251.802V261.095V270.388H1142.39V279.681V288.973H1153.3V298.267H1164.22V307.56H1175.13V316.853H1186.04V307.56V298.267H1196.95V288.973H1207.86V279.681V270.388V261.095V251.802V242.509V233.216V223.922H1196.95Z" fill="white"/>
<path d="M1025.08 279.743H1036V298.329H1046.91V307.621H1057.82V316.915H1079.64V323.198H1516.11V316.915H1527.03V307.621H1516.11V298.329H1505.2V289.035H1494.29V270.45H1483.37V205.398H1472.46V214.691H1461.55V223.984H1396.08V214.691H1385.17V205.398H1374.26V196.105H1363.34V205.398H1352.44V223.984H1341.53V233.278H1330.61V242.57H1319.7V251.863H1297.88V261.157H1210.58V251.863H1188.76V242.57H1177.85V233.278H1166.94V223.984H1145.11V233.278H1134.2V242.57H1068.73V233.278H1057.82V223.984H1046.91V205.398H1036V168.227H1025.08V196.105H1014.17V251.863H1025.08V279.743Z" fill="#B2E2F1"/>
<path d="M1548.85 223.985V214.692V205.399H1537.94V196.106H1527.02V186.813H1516.11V177.52H1505.2H1494.29H1483.37V168.227V158.934V149.641H1472.46V140.348V131.055V121.762H1461.56V112.469H1450.64V103.176H1439.73V93.8829H1428.82V84.5898H1417.91H1406.99H1396.08H1385.17H1374.26H1363.35H1352.44H1341.52V93.8829H1330.61V84.5898V75.2967H1319.7V66.0035H1308.79H1297.87V56.7103H1286.96V47.418H1276.06H1265.14H1254.23H1243.32H1232.41H1221.49V56.7103H1210.58H1199.67V66.0035H1188.76V75.2967H1177.84V84.5898H1166.94V93.8829H1156.03V103.176V112.469V121.762H1145.11H1134.2H1123.29H1112.38H1101.46H1090.55H1079.64V131.055H1068.73H1057.82V140.348H1046.91V149.641H1036V158.934V168.227V177.52V186.813V196.106V205.399H1046.91V214.692V223.985H1057.82V233.279H1068.73V242.571H1079.64H1090.55H1101.46H1112.38H1123.29H1134.2V233.279H1145.11V223.985H1156.03H1166.94V233.279H1177.84V242.571H1188.76V251.864H1199.67H1210.58V261.157H1221.49H1232.41H1243.32H1254.23H1265.14H1276.06H1286.96H1297.87V251.864H1308.79H1319.7V242.571H1330.61V233.279H1341.52V223.985H1352.44V214.692V205.399H1363.35V196.106H1374.26V205.399H1385.17V214.692H1396.08V223.985H1406.99H1417.91H1428.82H1439.73H1450.64H1461.56V214.692H1472.46V205.399H1483.37V214.692V223.985V233.279V242.571V251.864V261.157V270.45H1494.29V279.744V289.036H1505.2V298.33H1516.11V307.622H1527.02V316.915H1537.94V307.622V298.33H1548.85V289.036H1559.75V279.744V270.45V261.157V251.864V242.571V233.279V223.985H1548.85Z" fill="white"/>
<path d="M345.219 323.139H718.337V315.979H709.655V264.252H700.981V271.641H692.3V279.03H640.238V271.641H631.564V264.252H622.884V256.857H614.21V264.252H605.528V279.03H596.853V286.418H588.178V293.807H579.497V301.202H562.149V308.591H492.725V301.202H475.377V293.807H466.695V286.418H458.021V279.03H440.665V286.418H431.99V293.807H379.922V286.418H371.248V279.03H362.574V264.252H353.893V234.691H345.219V256.857H336.537V301.202H345.219V323.139Z" fill="#B2E2F1"/>
<path d="M362.574 279.028H371.248V286.416H379.922V293.805H431.99V286.416H440.665V279.028H458.021V286.416H466.695V293.805H475.377V301.2H492.726V308.589H562.149V301.2H579.497V293.805H588.178V286.416H596.853V279.028H605.528V264.25H614.21V256.855H622.884V264.25H631.564V271.639H640.238V279.028H692.3V271.639H700.981V264.25H709.656V315.977H718.337V323.136H770.39V279.028H761.716V264.25H753.035V256.855H744.36V249.466H735.678V242.078H709.656V219.912H700.981V197.74H692.3V190.351H683.625V182.956H674.951V175.567H666.27V168.179H596.853V175.567H588.178V160.79H579.497V153.401H562.149V146.013H553.468V138.617H501.406V146.013H484.051V153.401H475.377V160.79H466.695V168.179H458.021V175.567H449.34V197.74H388.604V205.128H371.248V212.517H362.574V219.912H353.894V264.25H362.574V279.028Z" fill="white"/>
<path d="M1920 323.134V231.032H1916.59V241.298H1844.24V231.032H1832.19V220.758H1820.13V210.492H1808.07V220.758H1796.01V241.298H1783.95V251.57H1771.89V261.837H1759.83V272.11H1735.71V282.376H1639.24V272.11H1615.12V261.837H1603.06V251.57H1591V241.298H1566.89V251.57H1554.83V261.837H1482.48V251.57H1470.42V241.298H1458.36V220.758H1446.3V179.68H1434.25V210.492H1422.19V272.11H1434.25V302.915H1446.3V323.134H1920Z" fill="#B2E2F1"/>
<path d="M1919.78 128.391H1916.38V118.125H1904.32V107.852H1892.26V97.5864H1880.2V87.3125H1783.73V97.5864H1771.67V77.047H1759.61V66.7738H1735.5V56.5075H1723.44V46.2344H1651.09V56.5075H1626.97V66.7738H1614.91V77.047H1602.85V87.3125H1590.79V97.5864H1578.73V128.391H1494.32V138.664H1470.2V148.931H1458.14V159.204H1446.08V220.821H1458.14V241.361H1470.2V251.633H1482.26V261.9H1554.62V251.633H1566.68V241.361H1590.79V251.633H1602.85V261.9H1614.91V272.173H1639.03V282.439H1735.5V272.173H1759.61V261.9H1771.67V251.633H1783.73V241.361H1795.79V220.821H1807.85V210.555H1819.91V220.821H1831.97V231.095H1844.02V241.361H1916.38V231.095H1919.78V128.391Z" fill="white"/>
<path d="M480.179 323.136V321.183H493.184V310.111H480.179V299.031H467.174V287.958H454.17V265.807H441.172V188.28H428.16V199.359H415.163V210.432H337.135V199.359H324.131V188.28H311.126V177.207H298.121V188.28H285.116V210.432H272.112V221.504H259.107V232.583H246.102V243.655H220.093V254.735H116.055V243.655H90.0455V232.583H77.0413V221.504H64.0363V210.432H38.0272V221.504H25.0223V232.583H0V323.136H480.179Z" fill="#B2E2F1"/>
<path d="M519.193 210.431V188.28H506.188V177.206H493.184V166.127H480.179V155.055H441.172V121.83H428.16V88.606H415.163V77.5267H402.158V66.4544H389.154V55.3753H376.15V44.303H272.112V55.3753H259.107V33.2238H246.102V22.1515H220.093V11.0792H207.088V0H129.06V11.0792H103.05V22.1515H90.0455V33.2238H77.0413V44.303H64.0363V55.3753H51.0314V88.606H0V232.582H25.0223V221.503H38.0272V210.431H64.0363V221.503H77.0413V232.582H90.0455V243.655H116.055V254.734H220.093V243.655H246.102V232.582H259.107V221.503H272.112V210.431H285.116V188.28H298.121V177.206H311.126V188.28H324.131V199.359H337.135V210.431H415.163V199.359H428.16V188.28H441.172V265.806H454.17V287.958H467.174V299.031H480.179V310.11H493.184V321.182H506.188V299.031H519.193V287.958H532.198V210.431H519.193Z" fill="white"/>
<path d="M1218.12 295.421H1225.07V307.271H1232.03V313.201H1238.99V319.123H1252.91V323.133H1531.23V319.123H1538.19V313.201H1531.23V307.271H1524.27V301.349H1517.31V289.492H1510.36V248.017H1503.4V253.939H1496.44V259.868H1454.69V253.939H1447.73V248.017H1440.77V242.088H1433.82V248.017H1426.86V259.868H1419.9V265.79H1412.94V271.719H1405.99V277.641H1392.07V283.57H1336.4V277.641H1322.49V271.719H1315.53V265.79H1308.57V259.868H1294.66V265.79H1287.7V271.719H1245.95V265.79H1238.99V259.868H1232.03V248.017H1225.07V224.309H1218.12V242.088H1211.16V277.641H1218.12V295.421Z" fill="#B2E2F1"/>
<path d="M1552.1 259.871V253.942V248.02H1545.15V242.091H1538.19V236.162H1531.23V230.24H1524.27H1517.32H1510.36V224.311V218.389V212.461H1503.4V206.538V200.609V194.687H1496.44V188.758H1489.48V182.836H1482.53V176.908H1475.56V170.979H1468.61H1461.65H1454.69H1447.73H1440.77H1433.82H1426.86H1419.9V176.908H1412.94V170.979V165.057H1405.99V159.128H1399.03H1392.07V153.206H1385.11V147.277H1378.16H1371.2H1364.24H1357.28H1350.32H1343.36V153.206H1336.4H1329.45V159.128H1322.49V165.057H1315.53V170.979H1308.57V176.908H1301.61V182.836V188.758V194.687H1294.66H1287.7H1280.74H1273.78H1266.83H1259.87H1252.91V200.609H1245.95H1239V206.538H1232.03V212.461H1225.07V218.389V224.311V230.24V236.162V242.091V248.02H1232.03V253.942V259.871H1239V265.792H1245.95V271.721H1252.91H1259.87H1266.83H1273.78H1280.74H1287.7V265.792H1294.66V259.871H1301.61H1308.57V265.792H1315.53V271.721H1322.49V277.644H1329.45H1336.4V283.572H1343.36H1350.32H1357.28H1364.24H1371.2H1378.16H1385.11H1392.07V277.644H1399.03H1405.99V271.721H1412.94V265.792H1419.9V259.871H1426.86V253.942V248.02H1433.82V242.091H1440.77V248.02H1447.73V253.942H1454.69V259.871H1461.65H1468.61H1475.56H1482.53H1489.48H1496.44V253.942H1503.4V248.02H1510.36V253.942V259.871V265.792V271.721V277.644V283.572V289.495H1517.32V295.424V301.352H1524.27V307.274H1531.23V313.203H1538.19V319.125H1545.15V313.203V307.274H1552.1V301.352H1559.06V295.424V289.495V283.572V277.644V271.721V265.792V259.871H1552.1Z" fill="white"/>
</svg>
