<svg width="400" height="205" viewBox="0 0 400 205" fill="none" xmlns="http://www.w3.org/2000/svg">
<path d="M368 190.763V183.952H360.004V177.141H352.003V170.323V163.512H344.005V156.701V149.885V143.074V136.263V129.445V122.635V115.824H336.004V122.635H328.003V129.445H320.002H312.001H304.004H296.003H288.002H280.001V122.635H272V115.824H264V109.006H255.999V115.824H248.003V122.635V129.445H240V136.263H231.999V143.074H223.999V149.885H215.998H208.002V156.701H200.001H192H183.999H175.999H168.001H160.003H152.002H144.001V149.885H136.001H128V143.074H120.002V136.263H112.001V129.445H104H96.0002V136.263H87.9993V143.074H79.9983H71.9973H64.0002H56H47.999H39.998V136.263H32.0032V129.445H23.9991V122.635V115.824H16.0012V109.006V102.195V95.3771V88.5664H8.00096V95.3771V102.195V109.006H0V115.824V122.635V129.445V136.263V143.074V149.885H8.00096V156.701V163.512V170.323H16.0012V177.141V183.952H23.9991V190.763H32.0032V197.58H39.998H47.999V204.391H56H64.0002H71.9973H79.9983H87.9993H96.0002H104H112.001H120.002H128H136.001H144.001H152.002H160.003H168.001H175.999H183.999H192H200.001H208.002H215.998H223.999H231.999H240H248.003H255.999H264H272H280.001H288.002H296.003H304.004H312.001H320.002H328.003H336.004H344.005H352.003H360.004H368V197.58H376.001V190.763H368Z" fill="#B2E2F1"/>
<path d="M392.003 129.446V122.635V115.825H384.002V109.006H376.001V102.196H368V95.3779H360.003H352.002H344.004V88.5672V81.7565V74.9388H336.004V68.1281V61.3174V54.4997H328.003V47.689H320.002V40.8782H312.001V34.0606H304.003V27.2499H296.003H288.002H280.001H272H264H255.999H248.003H240V34.0606H231.999V27.2499V20.4391H223.999V13.6215H215.998H208.002V6.81074H200.001V0H192H183.999H175.998H168H160.003H152.002V6.81074H144.001H136V13.6215H127.999V20.4391H120.002V27.2499H112.001V34.0606H104V40.8782V47.689V54.4997H96H87.9991H79.9981H71.9971H64H55.9998H47.9988V61.3174H39.9978H32.003V68.1281H23.9989V74.9388H16.001V81.7565V88.5672V95.3779V102.196V109.006V115.825H23.9989V122.635V129.446H32.003V136.264H39.9978V143.075H47.9988H55.9998H64H71.9971H79.9981H87.9991V136.264H96V129.446H104H112.001V136.264H120.002V143.075H127.999V149.885H136H144.001V156.702H152.002H160.003H168H175.998H183.999H192H200.001H208.002V149.885H215.998H223.999V143.075H231.999V136.264H240V129.446H248.003V122.635V115.825H255.999V109.006H264V115.825H272V122.635H280.001V129.446H288.002H296.003H304.003H312.001H320.002H328.003V122.635H336.004V115.825H344.004V122.635V129.446V136.264V143.075V149.885V156.702V163.513H352.002V170.324V177.142H360.003V183.953H368V190.764H376.001V197.581H384.002V190.764V183.953H392.003V177.142H400V170.324V163.513V156.702V149.885V143.075V136.264V129.446H392.003Z" fill="white"/>
</svg>
