<svg width="819" height="267" viewBox="0 0 819 267" fill="none" xmlns="http://www.w3.org/2000/svg">
<path d="M776.537 248.581V239.706H766.115V230.831H755.689V221.946V213.071H745.269V204.196V195.313V186.438V177.563V168.679V159.804V150.929H734.842V159.804H724.417V168.679H713.991H703.565H693.144H682.718H672.293H661.867V159.804H651.441V150.929H641.015V142.044H630.589V150.929H620.168V159.804V168.679H609.742V177.563H599.316V186.438H588.89V195.313H578.465H568.043V204.196H557.617H547.191H536.765H526.34H515.919H505.498H495.072H484.646V195.313H474.22H463.795V186.438H453.373V177.563H442.947V168.679H432.521H422.095V177.563H411.67V186.438H401.244H390.818H380.396H369.97H359.545H349.119V177.563H338.703V168.679H328.272V159.804V150.929H317.851V142.044V133.169V124.285V115.41H307.425V124.285V133.169V142.044H297V150.929V159.804V168.679V177.563V186.438V195.313H307.425V204.196V213.071V221.946H317.851V230.831V239.706H328.272V248.581H338.703V257.465H349.119H359.545V266.34H369.97H380.396H390.818H401.244H411.67H422.095H432.521H442.947H453.373H463.795H474.22H484.646H495.072H505.498H515.919H526.34H536.765H547.191H557.617H568.043H578.465H588.89H599.316H609.742H620.168H630.589H641.015H651.441H661.867H672.293H682.718H693.144H703.565H713.991H724.417H734.842H745.269H755.689H766.115H776.537V257.465H786.963V248.581H776.537Z" fill="#B2E2F1"/>
<path d="M807.814 168.68V159.805V150.93H797.388V142.045H786.963V133.17H776.537V124.286H766.115H755.689H745.269V115.411V106.536V97.652H734.842V88.777V79.902V71.018H724.417V62.143H713.991V53.268H703.565V44.384H693.144V35.509H682.718H672.293H661.867H651.441H641.015H630.589H620.168H609.742V44.384H599.316V35.509V26.634H588.89V17.75H578.465H568.043V8.875H557.617V0H547.191H536.765H526.34H515.919H505.498H495.072V8.875H484.646H474.22V17.75H463.795V26.634H453.373V35.509H442.947V44.384H432.521V53.268V62.143V71.018H422.095H411.67H401.244H390.818H380.396H369.97H359.545V79.902H349.119H338.703V88.777H328.272V97.652H317.851V106.536V115.411V124.286V133.17V142.045V150.93H328.272V159.805V168.68H338.703V177.564H349.119V186.439H359.545H369.97H380.396H390.818H401.244H411.67V177.564H422.095V168.68H432.521H442.947V177.564H453.373V186.439H463.795V195.314H474.22H484.646V204.197H495.072H505.498H515.919H526.34H536.765H547.191H557.617H568.043V195.314H578.465H588.89V186.439H599.316V177.564H609.742V168.68H620.168V159.805V150.93H630.589V142.045H641.015V150.93H651.441V159.805H661.867V168.68H672.293H682.718H693.144H703.565H713.991H724.417V159.805H734.842V150.93H745.269V159.805V168.68V177.564V186.439V195.314V204.197V213.072H755.689V221.947V230.832H766.115V239.707H776.537V248.582H786.963V257.466H797.388V248.582V239.707H807.814V230.832H818.236V221.947V213.072V204.197V195.314V186.439V177.564V168.68H807.814Z" fill="white"/>
<path d="M479.537 248.581V239.706H469.117V230.831H458.691V221.946V213.071H448.269V204.196V195.313V186.438V177.563V168.679V159.804V150.929H437.844V159.804H427.418V168.679H416.992H406.566H396.144H385.719H375.293H364.867V159.804H354.441V150.929H344.016V142.044H333.59V150.929H323.17V159.804V168.679H312.742V177.563H302.316V186.438H291.891V195.313H281.465H271.045V204.196H260.619H250.193H239.767H229.342H218.92H208.498H198.072H187.646V195.313H177.221H166.795V186.438H156.374V177.563H145.948V168.679H135.522H125.097V177.563H114.671V186.438H104.245H93.819H83.3979H72.973H62.547H52.121V177.563H41.703V168.679H31.2729V159.804V150.929H20.851V142.044V133.169V124.285V115.41H10.426V124.285V133.169V142.044H0V150.929V159.804V168.679V177.563V186.438V195.313H10.426V204.196V213.071V221.946H20.851V230.831V239.706H31.2729V248.581H41.703V257.465H52.121H62.547V266.34H72.973H83.3979H93.819H104.245H114.671H125.097H135.522H145.948H156.374H166.795H177.221H187.646H198.072H208.498H218.92H229.342H239.767H250.193H260.619H271.045H281.465H291.891H302.316H312.742H323.17H333.59H344.016H354.441H364.867H375.293H385.719H396.144H406.566H416.992H427.418H437.844H448.269H458.691H469.117H479.537V257.465H489.963V248.581H479.537Z" fill="#B2E2F1"/>
<path d="M510.816 168.68V159.805V150.93H500.389V142.045H489.963V133.17H479.537V124.286H469.117H458.691H448.269V115.411V106.536V97.652H437.844V88.777V79.902V71.018H427.418V62.143H416.992V53.268H406.566V44.384H396.144V35.509H385.719H375.293H364.867H354.441H344.016H333.59H323.17H312.742V44.384H302.316V35.509V26.634H291.891V17.75H281.465H271.045V8.875H260.619V0H250.193H239.767H229.342H218.92H208.498H198.072V8.875H187.646H177.221V17.75H166.795V26.634H156.374V35.509H145.948V44.384H135.522V53.268V62.143V71.018H125.097H114.671H104.245H93.8186H83.3976H72.9727H62.5466V79.902H52.1206H41.7026V88.777H31.2726V97.652H20.8506V106.536V115.411V124.286V133.17V142.045V150.93H31.2726V159.805V168.68H41.7026V177.564H52.1206V186.439H62.5466H72.9727H83.3976H93.8186H104.245H114.671V177.564H125.097V168.68H135.522H145.948V177.564H156.374V186.439H166.795V195.314H177.221H187.646V204.197H198.072H208.498H218.92H229.342H239.767H250.193H260.619H271.045V195.314H281.465H291.891V186.439H302.316V177.564H312.742V168.68H323.17V159.805V150.93H333.59V142.045H344.016V150.93H354.441V159.805H364.867V168.68H375.293H385.719H396.144H406.566H416.992H427.418V159.805H437.844V150.93H448.269V159.805V168.68V177.564V186.439V195.314V204.197V213.072H458.691V221.947V230.832H469.117V239.707H479.537V248.582H489.963V257.466H500.389V248.582V239.707H510.816V230.832H521.236V221.947V213.072V204.197V195.314V186.439V177.564V168.68H510.816Z" fill="white"/>
</svg>
