<svg width="1920" height="581" fill="none" xmlns="http://www.w3.org/2000/svg"><path fill="#C3C3C3" d="M0 0h1920v581H0z"/><path fill="#6893F1" d="M.001 40.529h1920v540.363H.001z"/><path d="M1707.52 50.531h9.66v-10h-9.66v10zM1630.26 50.531h9.66v-10h-9.66v10zM1610.95 50.531h9.65v-10h-9.65v10z" fill="#88ADF1"/><path d="M1620.6 50.531h9.66v-10h-9.66v10zM1620.6 60.531h9.66v-10h-9.66v10zM1630.26 60.531h9.66v-10h-9.66v10zM1630.26 70.531h9.66v-10h-9.66v10zM1639.92 60.531h9.66v-10h-9.66v10zM1639.92 50.531h9.66v-10h-9.66v10z" fill="#88ADF1"/><path d="M1649.58 50.531h9.65v-10h-9.65v10zM1678.55 50.531h9.66v-10h-9.66v10zM1688.21 50.531h9.66v-10h-9.66v10zM1697.87 60.531h9.66v-10h-9.66v10z" fill="#88ADF1"/><path d="M1697.87 50.531h9.66v-10h-9.66v10zM1707.52 70.531h9.66v-10h-9.66v10zM1707.52 60.531h9.66v-10h-9.66v10zM1717.18 50.531h9.66v-10h-9.66v10zM1717.18 60.531h9.66v-10h-9.66v10z" fill="#88ADF1"/><path d="M1726.84 50.531h9.66v-10h-9.66v10zM1755.81 50.531h9.66v-10h-9.66v10zM1765.47 50.531h9.66v-10h-9.66v10zM1775.13 50.531h9.66v-10h-9.66v10zM1775.13 60.531h28.97v-10h-28.97v10z" fill="#88ADF1"/><path d="M1784.79 50.531h9.66v-10h-9.66v10zM1804.1 50.531h9.66v-10h-9.66v10zM1813.76 50.531h9.66v-10h-9.66v10zM1823.42 50.531h9.66v-10h-9.66v10z" fill="#88ADF1"/><path d="M1833.08 50.531h9.66v-10h-9.66v10zM1823.42 60.531h9.66v-10h-9.66v10z" fill="#88ADF1"/><path d="M1833.08 60.531h9.66v-10h-9.66v10zM1833.08 70.531h9.66v-10h-9.66v10zM1842.74 60.531h28.97v-10h-28.97v10zM1842.74 50.531h9.65v-10h-9.65v10zM1852.39 50.531h9.66v-10h-9.66v10zM1871.71 50.531h9.66v-10h-9.66v10z" fill="#88ADF1"/><path d="M1881.37 50.531h9.66v-10h-9.66v10zM1881.37 60.531h19.31v-10h-19.31v10zM1900.68 50.531h9.66v-10h-9.66v10z" fill="#88ADF1"/><path d="M1910.34 50.531h9.66v-10h-9.66v10zM1910.34 60.531h9.66v-10h-9.66v10z" fill="#88ADF1"/><path d="M1610.95 60.531h9.65v-10h-9.65v10zM1620.6 70.531h9.66v-10h-9.66v10zM1620.6 80.531h28.98v-10h-28.98v10zM1639.92 70.531h9.66v-10h-9.66v10zM1649.58 60.531h9.65v-10h-9.65v10zM1659.24 50.531h9.65v-10h-9.65v10zM1668.89 50.531h9.66v-10h-9.66v10zM1678.55 60.531h9.66v-10h-9.66v10zM1688.21 60.531h9.66v-10h-9.66v10zM1697.87 70.531h9.66v-10h-9.66v10zM1707.52 80.531h9.66v-10h-9.66v10zM1717.18 70.531h9.66v-10h-9.66v10zM1726.84 60.531h28.97v-10h-28.97v10zM1736.5 50.531h9.66v-10h-9.66v10zM1746.16 50.531h9.65v-10h-9.65v10zM1755.81 60.531h9.66v-10h-9.66v10zM1765.47 60.531h9.66v-10h-9.66v10zM1775.13 70.531h9.66v-10h-9.66v10zM1784.79 60.531h9.66v-10h-9.66v10zM1794.45 50.531h9.66v-10h-9.66v10zM1804.1 60.531h9.66v-10h-9.66v10zM1813.76 60.531h9.66v-10h-9.66v10zM1823.42 70.531h9.66v-10h-9.66v10zM1833.08 80.531h9.66v-10h-9.66v10zM1842.74 70.531h9.65v-10h-9.65v10zM1862.05 50.531h9.66v-10h-9.66v10zM1871.71 60.531h9.66v-10h-9.66v10zM1881.37 70.531h9.66v-10h-9.66v10zM1891.03 50.531h9.66v-10h-9.66v10zM1900.68 60.531h9.66v-10h-9.66v10zM1910.34 70.531h9.66v-10h-9.66v10z" fill="#9BC7F6"/><path d="M1398.47 50.531h9.66v-10h-9.66v10zM1321.21 50.531h9.66v-10h-9.66v10zM1301.89 50.531h9.66v-10h-9.66v10z" fill="#88ADF1"/><path d="M1311.55 50.531h9.66v-10h-9.66v10zM1311.55 60.531h9.66v-10h-9.66v10zM1321.21 60.531h9.66v-10h-9.66v10zM1321.21 70.531h9.66v-10h-9.66v10z" fill="#88ADF1"/><path d="M1330.87 60.531h9.65v-10h-9.65v10zM1330.87 50.531h9.65v-10h-9.65v10zM1340.52 50.531h9.66v-10h-9.66v10zM1369.5 50.531h9.66v-10h-9.66v10zM1379.16 50.531h9.65v-10h-9.65v10zM1388.81 60.531h9.66v-10h-9.66v10z" fill="#88ADF1"/><path d="M1388.81 50.531h9.66v-10h-9.66v10zM1398.47 70.531h9.66v-10h-9.66v10zM1388.81 70.531h9.66v-10h-9.66v10zM1388.81 80.531h9.66v-10h-9.66v10zM1398.47 60.531h9.66v-10h-9.66v10zM1408.13 50.531h9.66v-10h-9.66v10zM1408.13 60.531h9.66v-10h-9.66v10z" fill="#88ADF1"/><path d="M1417.79 50.531h9.65v-10h-9.65v10zM1446.76 50.531h9.66v-10h-9.66v10zM1456.42 50.531h9.66v-10h-9.66v10z" fill="#88ADF1"/><path d="M1466.08 50.531h9.65v-10h-9.65v10zM1466.08 60.531h9.65v-10h-9.65v10zM1475.73 50.531h9.66v-10h-9.66v10zM1504.71 50.531h9.66v-10h-9.66v10z" fill="#88ADF1"/><path d="M1514.37 50.531h9.65v-10h-9.65v10zM1524.02 50.531h9.66v-10h-9.66v10zM1514.37 60.531h9.65v-10h-9.65v10zM1524.02 60.531h9.66v-10h-9.66v10zM1533.68 60.531h9.66v-10h-9.66v10zM1533.68 50.531h9.66v-10h-9.66v10z" fill="#88ADF1"/><path d="M1543.34 50.531h9.66v-10h-9.66v10zM1562.66 50.531h9.65v-10h-9.65v10z" fill="#88ADF1"/><path d="M1572.31 50.531h9.66v-10h-9.66v10zM1572.31 60.531h9.66v-10h-9.66v10zM1591.63 50.531h9.66v-10h-9.66v10z" fill="#88ADF1"/><path d="M1601.29 50.531h9.66v-10h-9.66v10zM1601.29 60.531h9.66v-10h-9.66v10z" fill="#88ADF1"/><path d="M1301.89 60.531h9.66v-10h-9.66v10zM1311.55 70.531h9.66v-10h-9.66v10zM1321.21 80.531h9.66v-10h-9.66v10zM1330.87 70.531h9.65v-10h-9.65v10zM1340.52 60.531h9.66v-10h-9.66v10zM1350.18 50.531h9.66v-10h-9.66v10z" fill="#9BC7F6"/><path d="M1359.84 50.531h9.66v-10h-9.66v10zM1369.5 60.531h9.66v-10h-9.66v10zM1379.16 60.531h9.65v-10h-9.65v10zM1379.16 70.531h9.65v-10h-9.65v10z" fill="#88ADF1"/><path d="M1379.16 80.531h9.65v-10h-9.65v10zM1369.5 70.531h9.66v-10h-9.66v10zM1359.84 60.531h9.66v-10h-9.66v10zM1388.81 90.531h9.66v-10h-9.66v10zM1398.47 80.531h9.66v-10h-9.66v10zM1408.13 70.531h9.66v-10h-9.66v10z" fill="#9BC7F6"/><path d="M1417.79 60.531h48.29v-10h-48.29v10z" fill="#88ADF1"/><path d="M1427.45 50.531h9.65v-10h-9.65v10z" fill="#9BC7F6"/><path d="M1437.1 50.531h9.66v-10h-9.66v10zM1466.08 70.531h9.65v-10h-9.65v10zM1475.73 60.531h9.66v-10h-9.66v10zM1485.39 50.531h9.66v-10h-9.66v10z" fill="#9BC7F6"/><path d="M1495.05 50.531h9.66v-10h-9.66v10zM1504.71 60.531h9.66v-10h-9.66v10zM1514.37 70.531h9.65v-10h-9.65v10zM1533.68 70.531h9.66v-10h-9.66v10z" fill="#9BC7F6"/><path d="M1543.34 60.531h28.97v-10h-28.97v10z" fill="#88ADF1"/><path d="M1553 50.531h9.66v-10H1553v10zM1572.31 70.531h9.66v-10h-9.66v10zM1581.97 50.531h9.66v-10h-9.66v10zM1591.63 60.531h9.66v-10h-9.66v10zM1601.29 70.531h9.66v-10h-9.66v10zM501.25 60.531h183.5v-10h-183.5v10z" fill="#9BC7F6"/><path d="M481.934 50.531h9.658v-10h-9.658v10zM404.671 50.531h9.658v-10h-9.658v10zM385.355 50.531h9.658v-10h-9.658v10z" fill="#88ADF1"/><path d="M395.012 50.531h9.658v-10h-9.658v10zM395.012 60.531h9.658v-10h-9.658v10zM404.671 60.531h9.658v-10h-9.658v10zM404.671 70.531h9.658v-10h-9.658v10z" fill="#88ADF1"/><path d="M414.327 60.531h9.658v-10h-9.658v10zM414.327 50.531h9.658v-10h-9.658v10zM423.985 50.531h9.658v-10h-9.658v10zM452.959 50.531h9.658v-10h-9.658v10zM462.618 50.531h9.658v-10h-9.658v10zM472.277 60.531h9.658v-10h-9.658v10zM472.277 50.531h9.658v-10h-9.658v10zM481.934 70.531h9.658v-10h-9.658v10z" fill="#88ADF1"/><path d="M481.934 60.531h9.658v-10h-9.658v10zM491.593 50.531h9.658v-10h-9.658v10zM491.593 60.531h9.658v-10h-9.658v10z" fill="#88ADF1"/><path d="M501.251 50.531h9.658v-10h-9.658v10zM530.224 50.531h9.658v-10h-9.658v10z" fill="#88ADF1"/><path d="M539.881 50.531h9.658v-10h-9.658v10zM549.54 50.531h9.658v-10h-9.658v10zM549.54 60.531h9.658v-10h-9.658v10zM559.199 50.531h9.657v-10h-9.657v10zM578.513 50.531h9.658v-10h-9.658v10zM588.171 50.531h9.658v-10h-9.658v10zM597.83 50.531h9.658v-10h-9.658v10zM607.488 50.531h9.658v-10h-9.658v10zM597.83 60.531h9.658v-10h-9.658v10zM607.488 60.531h9.658v-10h-9.658v10zM607.488 70.531h9.658v-10h-9.658v10z" fill="#88ADF1"/><path d="M617.146 60.531h9.658v-10h-9.658v10zM617.146 50.531h9.658v-10h-9.658v10zM626.804 50.531h9.658v-10h-9.658v10zM646.117 50.531h9.658v-10h-9.658v10zM655.779 50.531h9.658v-10h-9.658v10zM655.779 60.531h9.658v-10h-9.658v10zM675.092 50.531h9.658v-10h-9.658v10zM684.751 50.531h9.658v-10h-9.658v10zM684.751 60.531h9.658v-10h-9.658v10z" fill="#88ADF1"/><path d="M385.355 60.531h9.658v-10h-9.658v10zM395.012 70.531h9.658v-10h-9.658v10zM395.012 80.531h28.973v-10h-28.973v10zM414.327 70.531h38.634v-10h-38.634v10zM423.986 60.531h28.975v-10h-28.975v10zM433.646 50.531h9.658v-10h-9.658v10z" fill="#9BC7F6"/><path d="M443.304 50.531h9.658v-10h-9.658v10zM452.959 60.531h9.658v-10h-9.658v10zM462.618 60.531h9.658v-10h-9.658v10zM472.277 70.531h9.658v-10h-9.658v10zM481.934 80.531h9.658v-10h-9.658v10zM491.593 70.531h9.658v-10h-9.658v10zM510.907 50.531h9.657v-10h-9.657v10zM520.566 50.531h9.658v-10h-9.658v10zM530.224 60.531h9.658v-10h-9.658v10z" fill="#9BC7F6"/><path d="M539.881 60.531h9.658v-10h-9.658v10zM549.54 70.531h9.658v-10h-9.658v10zM559.199 60.531h9.657v-10h-9.657v10zM568.856 50.531h9.658v-10h-9.658v10zM578.513 60.531h9.658v-10h-9.658v10zM588.171 60.531h9.658v-10h-9.658v10zM597.83 70.531h9.658v-10h-9.658v10zM607.488 80.531h9.658v-10h-9.658v10zM617.146 70.531h9.658v-10h-9.658v10zM626.804 60.531h9.658v-10h-9.658v10zM636.462 50.531h9.658v-10h-9.658v10zM646.117 60.531h9.658v-10h-9.658v10zM655.779 70.531h9.658v-10h-9.658v10zM665.437 50.531h9.658v-10h-9.658v10zM675.092 60.531h9.658v-10h-9.658v10zM684.751 70.531h9.658v-10h-9.658v10z" fill="#9BC7F6"/><path d="M172.88 50.531h9.658v-10h-9.658v10zM95.617 50.531h9.657v-10h-9.657v10zM76.3 50.531h9.658v-10H76.3v10z" fill="#88ADF1"/><path d="M85.96 50.531h9.658v-10H85.96v10zM85.96 60.531h9.658v-10H85.96v10z" fill="#88ADF1"/><path d="M95.617 60.531h9.657v-10h-9.657v10zM95.617 70.531h9.657v-10h-9.657v10zM105.275 60.531h9.658v-10h-9.658v10zM105.275 50.531h9.658v-10h-9.658v10zM114.933 50.531h9.658v-10h-9.658v10zM143.907 50.531h9.658v-10h-9.658v10zM153.566 50.531h9.658v-10h-9.658v10zM163.222 60.531h9.658v-10h-9.658v10z" fill="#88ADF1"/><path d="M163.222 50.531h9.658v-10h-9.658v10zM172.88 70.531h9.658v-10h-9.658v10zM163.222 70.531h9.658v-10h-9.658v10zM172.88 60.531h9.658v-10h-9.658v10zM182.538 50.531h9.658v-10h-9.658v10zM182.538 60.531h9.658v-10h-9.658v10z" fill="#88ADF1"/><path d="M192.194 50.531h9.658v-10h-9.658v10zM221.168 50.531h9.658v-10h-9.658v10zM230.827 50.531h9.658v-10h-9.658v10zM240.486 50.531h9.658v-10h-9.658v10zM240.486 60.531h9.658v-10h-9.658v10z" fill="#88ADF1"/><path d="M250.143 50.531h9.658v-10h-9.658v10zM279.117 50.531h9.658v-10h-9.658v10z" fill="#88ADF1"/><path d="M288.775 50.531h9.658v-10h-9.658v10zM298.433 50.531h9.658v-10h-9.658v10zM288.775 60.531h9.658v-10h-9.658v10zM298.433 60.531h9.658v-10h-9.658v10z" fill="#88ADF1"/><path d="M308.09 60.531h9.658v-10h-9.658v10zM308.09 50.531h9.658v-10h-9.658v10zM317.749 50.531h9.658v-10h-9.658v10zM337.065 50.531h9.658v-10h-9.658v10zM346.724 50.531h9.658v-10h-9.658v10zM346.724 60.531h9.658v-10h-9.658v10zM366.037 50.531h9.658v-10h-9.658v10zM375.699 50.531h9.657v-10h-9.657v10zM375.699 60.531h9.657v-10h-9.657v10z" fill="#88ADF1"/><path d="M76.3 60.531h9.658v-10H76.3v10zM85.96 70.531h9.658v-10H85.96v10zM95.617 80.531h9.657v-10h-9.657v10zM105.274 70.533h38.633v-10h-38.633v10zM114.933 60.531h19.316v-10h-19.316v10zM124.591 50.531h9.658v-10h-9.658v10z" fill="#9BC7F6"/><path d="M134.247 50.531h9.658v-10h-9.658v10zM143.907 60.531h9.658v-10h-9.658v10zM153.566 60.531h9.658v-10h-9.658v10zM153.566 70.531h9.658v-10h-9.658v10z" fill="#88ADF1"/><path d="M153.566 80.531h9.658v-10h-9.658v10zM143.907 70.531h9.658v-10h-9.658v10zM0 40.492h1920v-10H0v10z" fill="#9BC7F6"/><path d="M0 30.453h1920v-10H0v10z" fill="#B3D7FF"/><path d="M0 20.414h1920v-10H0v10z" fill="#DEEEFF"/><path d="M0 10.453h1920v-10H0v10z" fill="#fff"/><path d="M134.247 60.531h9.658v-10h-9.658v10zM163.221 80.531h9.658v-10h-9.658v10zM172.879 80.531h28.974v-10h-28.974v10zM182.539 70.531h28.975v-10h-28.975v10zM192.195 60.531h19.319v-10h-19.319v10zM201.855 50.531h9.658v-10h-9.658v10zM211.513 50.531h9.658v-10h-9.658v10zM221.168 60.531h9.658v-10h-9.658v10zM230.827 60.531h9.658v-10h-9.658v10zM230.826 70.531h28.976v-10h-28.976v10zM250.143 60.531h9.658v-10h-9.658v10zM259.802 50.531h9.658v-10h-9.658v10z" fill="#9BC7F6"/><path d="M269.46 50.531h9.658v-10h-9.658v10zM279.117 60.531h9.658v-10h-9.658v10zM288.774 70.531h28.975v-10h-28.975v10zM298.433 60.531h9.658v-10h-9.658v10zM317.75 60.531h28.973v-10H317.75v10zM327.407 50.531h9.658v-10h-9.658v10zM346.724 70.531h9.658v-10h-9.658v10zM356.38 50.531h9.658v-10h-9.658v10zM366.037 60.531h9.658v-10h-9.658v10zM366.038 70.531h19.319v-10h-19.318l-.001 10z" fill="#9BC7F6"/><path d="M.001 60.531H9.66v-10H.001v10zM.001 50.531H9.66v-10H.001v10zM9.66 50.531h9.657v-10H9.66v10zM28.974 50.531h9.658v-10h-9.658v10zM38.632 50.531h9.658v-10h-9.658v10zM38.632 60.531h9.658v-10h-9.658v10zM57.949 50.531h9.657v-10H57.95v10zM67.607 50.531h9.658v-10h-9.658v10zM67.607 60.531h9.658v-10h-9.658v10z" fill="#88ADF1"/><path d="M.001 70.531H9.66v-10H.001v10zM9.66 60.531h19.316v-10H9.659v10zM19.318 50.531h9.658v-10h-9.658v10z" fill="#9BC7F6"/><path d="M28.974 60.531h9.658v-10h-9.658v10zM38.632 70.531h9.658v-10h-9.658v10zM48.292 50.531h9.658v-10h-9.658v10zM57.949 60.531h9.657v-10H57.95v10zM67.607 70.531h9.658v-10h-9.658v10zM1235.25 60.533h124.59v-10h-124.59v10z" fill="#9BC7F6"/><path d="M1090.38 50.533h9.66v-10h-9.66v10zM1013.12 50.533h9.66v-10h-9.66v10zM993.804 50.533h9.656v-10h-9.656v10zM1003.46 50.533h9.66v-10h-9.66v10zM1003.46 60.533h9.66v-10h-9.66v10zM1013.12 60.533h9.66v-10h-9.66v10zM1013.12 70.533h9.66v-10h-9.66v10zM1022.78 60.533h9.66v-10h-9.66v10zM1022.78 50.533h9.66v-10h-9.66v10z" fill="#88ADF1"/><path d="M1032.43 50.533h9.66v-10h-9.66v10zM1061.41 50.533h9.66v-10h-9.66v10z" fill="#88ADF1"/><path d="M1071.07 50.533h9.66v-10h-9.66v10zM1080.73 60.533h9.65v-10h-9.65v10zM1080.73 50.533h9.65v-10h-9.65v10zM1090.38 70.533h9.66v-10h-9.66v10zM1090.38 60.533h9.66v-10h-9.66v10zM1100.04 50.533h9.66v-10h-9.66v10z" fill="#88ADF1"/><path d="M1100.04 60.533h9.66v-10h-9.66v10zM1109.7 50.533h9.66v-10h-9.66v10zM1138.67 50.533h9.66v-10h-9.66v10z" fill="#88ADF1"/><path d="M1148.33 50.533h9.66v-10h-9.66v10zM1157.99 50.533h9.66v-10h-9.66v10zM1157.99 60.533h9.66v-10h-9.66v10zM1167.65 50.533h9.66v-10h-9.66v10zM1186.96 50.533h9.66v-10h-9.66v10z" fill="#88ADF1"/><path d="M1196.62 50.533h9.66v-10h-9.66v10zM1206.28 50.533h9.66v-10h-9.66v10zM1215.94 50.533h9.65v-10h-9.65v10zM1206.28 60.533h9.66v-10h-9.66v10zM1215.94 60.533h9.65v-10h-9.65v10zM1215.94 70.533h9.65v-10h-9.65v10z" fill="#88ADF1"/><path d="M1225.59 60.533h9.66v-10h-9.66v10zM1225.59 50.533h9.66v-10h-9.66v10zM1235.25 50.533h9.66v-10h-9.66v10zM1254.57 50.533h9.66v-10h-9.66v10zM1264.23 50.533h9.65v-10h-9.65v10zM1264.23 60.533h9.65v-10h-9.65v10zM1283.54 50.533h9.66v-10h-9.66v10zM1293.2 50.533h9.66v-10h-9.66v10zM1293.2 60.533h9.66v-10h-9.66v10z" fill="#88ADF1"/><path d="M993.804 60.533h9.656v-10h-9.656v10zM1003.46 70.533h9.66v-10h-9.66v10zM1013.12 80.533h9.66v-10h-9.66v10zM1022.78 70.533h9.66v-10h-9.66v10z" fill="#9BC7F6"/><path d="M1032.44 60.533h28.97v-10h-28.97v10z" fill="#88ADF1"/><path d="M1042.09 50.533h9.66v-10h-9.66v10zM1051.75 50.533h9.66v-10h-9.66v10zM1061.41 60.533h9.66v-10h-9.66v10z" fill="#9BC7F6"/><path d="M1071.07 60.533h9.66v-10h-9.66v10zM1080.73 70.533h9.65v-10h-9.65v10zM1090.38 80.533h9.66v-10h-9.66v10zM1100.04 70.533h57.95v-10h-57.95v10zM1109.7 60.533h28.97v-10h-28.97v10zM1119.36 50.533h9.65v-10h-9.65v10zM1129.01 50.533h9.66v-10h-9.66v10zM1138.67 60.533h9.66v-10h-9.66v10z" fill="#9BC7F6"/><path d="M1148.33 60.533h9.66v-10h-9.66v10zM1157.99 70.533h9.66v-10h-9.66v10zM1167.65 60.533h19.31v-10h-19.31v10z" fill="#9BC7F6"/><path d="M1177.31 50.533h9.65v-10h-9.65v10z" fill="#88ADF1"/><path d="M1186.96 60.533h9.66v-10h-9.66v10z" fill="#9BC7F6"/><path d="M1196.62 60.533h9.66v-10h-9.66v10zM1206.28 70.533h9.66v-10h-9.66v10zM1215.94 80.533h9.65v-10h-9.65v10zM1225.59 70.533h9.66v-10h-9.66v10zM1244.91 50.533h9.66v-10h-9.66v10zM1264.23 70.533h9.65v-10h-9.65v10zM1273.89 50.533h9.65v-10h-9.65v10zM1283.54 60.533h9.66v-10h-9.66v10zM1293.2 70.533h9.66v-10h-9.66v10z" fill="#9BC7F6"/><path d="M781.329 50.533h9.658v-10h-9.658v10zM704.066 50.533h9.658v-10h-9.658v10zM684.75 50.533h9.658v-10h-9.658v10z" fill="#88ADF1"/><path d="M694.409 50.533h9.658v-10h-9.658v10zM694.409 60.533h9.658v-10h-9.658v10z" fill="#88ADF1"/><path d="M704.066 60.533h9.658v-10h-9.658v10zM704.066 70.533h9.658v-10h-9.658v10zM713.725 60.533h9.658v-10h-9.658v10zM713.725 50.533h9.658v-10h-9.658v10z" fill="#88ADF1"/><path d="M723.382 50.533h9.658v-10h-9.658v10zM752.357 50.533h9.658v-10h-9.658v10zM762.015 50.533h9.658v-10h-9.658v10zM771.671 60.533h9.658v-10h-9.658v10z" fill="#88ADF1"/><path d="M771.671 50.533h9.658v-10h-9.658v10zM781.329 70.533h9.658v-10h-9.658v10zM781.329 60.533h9.658v-10h-9.658v10zM790.988 50.533h9.658v-10h-9.658v10zM790.988 60.533h9.658v-10h-9.658v10z" fill="#88ADF1"/><path d="M800.644 50.533h9.658v-10h-9.658v10zM829.618 50.533h9.658v-10h-9.658v10zM839.277 50.533h9.658v-10h-9.658v10z" fill="#88ADF1"/><path d="M848.935 50.533h9.658v-10h-9.658v10zM848.935 60.533h9.658v-10h-9.658v10zM858.593 50.533h9.658v-10h-9.658v10zM887.568 50.533h9.658v-10h-9.658v10z" fill="#88ADF1"/><path d="M897.224 50.533h9.658v-10h-9.658v10z" fill="#88ADF1"/><path d="M906.882 50.533h9.658v-10h-9.658v10zM868.252 60.533h38.63v-10h-38.63v10zM906.882 60.533h9.658v-10h-9.658v10zM916.54 60.533h9.658v-10h-9.658v10zM916.54 50.533h9.658v-10h-9.658v10zM926.199 50.533h9.657v-10h-9.657v10zM945.515 50.533h9.658v-10h-9.658v10zM955.173 50.533h9.658v-10h-9.658v10zM955.173 60.533h9.658v-10h-9.658v10zM974.488 50.533h9.658v-10h-9.658v10zM984.148 50.533h9.658v-10h-9.658v10zM984.148 60.533h9.658v-10h-9.658v10z" fill="#88ADF1"/><path d="M684.75 60.533h9.658v-10h-9.658v10zM694.409 70.533h9.658v-10h-9.658v10zM704.066 80.533h9.658v-10h-9.658v10zM713.725 70.533h9.658v-10h-9.658v10zM723.382 60.533h9.658v-10h-9.658v10zM733.038 50.533h9.658v-10h-9.658v10z" fill="#9BC7F6"/><path d="M742.697 50.533h9.657v-10h-9.657v10zM752.357 60.533h9.658v-10h-9.658v10zM762.015 60.533h9.658v-10h-9.658v10z" fill="#88ADF1"/><path d="M762.015 60.533h9.658v-10h-9.658v10zM752.357 70.533h9.658v-10h-9.658v10zM742.697 60.533h9.657v-10h-9.657v10zM771.671 70.533h9.658v-10h-9.658v10zM781.329 80.533h9.658v-10h-9.658v10zM790.988 70.533h9.658v-10h-9.658v10z" fill="#9BC7F6"/><path d="M800.644 60.533h28.975v-10h-28.975v10z" fill="#88ADF1"/><path d="M810.304 50.533h9.658v-10h-9.658v10zM819.962 50.533h9.658v-10h-9.658v10zM829.618 60.533h9.658v-10h-9.658v10zM839.277 60.533h9.658v-10h-9.658v10zM848.935 70.533h9.658v-10h-9.658v10zM858.593 60.533h9.658v-10h-9.658v10zM868.251 50.533h9.658v-10h-9.658v10zM877.909 50.533h9.658v-10h-9.658v10zM897.224 70.533h9.658v-10h-9.658v10zM906.882 60.533h9.658v-10h-9.658v10zM916.54 70.533h9.658v-10h-9.658v10zM926.199 60.533h9.657v-10h-9.657v10zM935.857 50.533h9.658v-10h-9.658v10zM945.515 60.533h9.658v-10h-9.658v10zM955.173 70.533h9.658v-10h-9.658v10zM964.829 50.533h9.658v-10h-9.658v10zM974.488 60.533h9.658v-10h-9.658v10zM984.148 70.533h9.658v-10h-9.658v10z" fill="#9BC7F6"/></svg>